<?xml version="1.0" encoding="UTF-8"?>
<svg id="Layer_1" xmlns="http://www.w3.org/2000/svg" version="1.1" viewBox="0 0 720 720">
  <!-- Generator: Adobe Illustrator 29.0.0, SVG Export Plug-In . SVG Version: 2.1.0 Build 186)  -->
  <defs>
    <style>
      .st0 {
        fill: #ef3a24;
      }
    </style>
  </defs>
  <path class="st0" d="M567.31,340.53c-20.57,0-37.24,17.62-37.24,39.36s16.67,39.36,37.24,39.36,37.24-17.62,37.24-39.36-16.67-39.36-37.24-39.36ZM567.31,401.59c-8.41,0-15.23-9.71-15.23-21.7s6.82-21.7,15.23-21.7,15.23,9.72,15.23,21.7-6.82,21.7-15.23,21.7Z"/>
  <path class="st0" d="M490.82,311.95l-24.94,67.74-24.94-67.74c-2.25-6.72-8.55-11.25-15.63-11.25h-16.35v118.61h23.04v-69.06l27.05,66.72c.57,1.42,1.95,2.34,3.48,2.34h6.7c1.53,0,2.91-.93,3.48-2.34l27.05-66.72v69.06h23.04v-118.61h-16.35c-7.09,0-13.38,4.53-15.63,11.25Z"/>
  <path class="st0" d="M201.67,341.21h-18.25c-7.26.12-14.58,1.66-21.97,4.63-7.39,2.97-13.76,7.6-19.1,13.89v-35.76h56.52v-23.27h-83.42v118.53h26.9v-24.96c0-5.93,1.37-10.92,4.11-14.96,2.74-4.03,6.29-7.3,10.68-9.79,4.38-2.49,9.24-4.27,14.58-5.34,5.34-1.07,10.54-1.6,15.61-1.6h2.71s.28-5.15,3.33-11.72c2.73-5.89,8.31-9.65,8.31-9.65Z"/>
  <path class="st0" d="M257.21,340.67s-.02.02-.03.03c-7.45,5.16-11.86,12.02-14.43,18.61h-10.32c-4.98,0-7.38.92-9.15,2.77-1.81,1.86-2.72,4.89-2.72,9.01v48.04h-22.58v-53.72c0-3.69.65-7.07,1.93-10.05,1.3-2.99,3.18-5.62,5.59-7.83,2.42-2.21,5.34-3.93,8.66-5.1,3.32-1.17,7-1.76,10.94-1.76h32.12Z"/>
  <path class="st0" d="M389.23,376.76c-3.7-1.55-7.71-2.68-11.92-3.36-4.21-.68-8.13-1.38-11.65-2.08-3.52-.69-6.47-1.62-8.77-2.8-2.09-1.06-3.12-2.61-3.12-4.74s1.19-3.66,3.62-4.72c2.59-1.15,5.57-1.73,8.84-1.73,1.89,0,3.78.19,5.62.58,1.81.38,3.46.96,4.87,1.71.72.4,1.36.83,1.93,1.32h21.57c-.99-5.55-3.62-10.07-7.87-13.5-5.51-4.44-13.98-6.68-25.19-6.68-4.32,0-8.53.49-12.49,1.44-4,.97-7.55,2.47-10.53,4.45-3.01,1.99-5.44,4.56-7.21,7.62-1.77,3.05-2.67,6.67-2.67,10.72,0,5,1.24,9.05,3.69,12.04,2.4,2.97,5.51,5.33,9.21,7.04,3.65,1.69,7.6,2.97,11.77,3.78,4.12.81,7.98,1.62,11.5,2.42,3.48.78,6.4,1.75,8.65,2.88,2.04,1.01,3.02,2.51,3.02,4.54,0,1.74-1.15,3.05-3.51,4.04-2.55,1.06-5.56,1.6-8.94,1.6-1.9,0-3.85-.19-5.79-.58-1.92-.38-3.69-1.01-5.24-1.85-1.54-.82-2.77-1.89-3.67-3.17-.19-.27-.36-.65-.51-1.1h-20.46c.45,2.79,1.23,5.57,2.34,7.48,1.86,3.23,4.39,5.99,7.49,8.21,3.09,2.21,6.76,3.94,10.89,5.13,4.13,1.19,8.48,1.79,12.93,1.79,10.42,0,18.9-1.93,25.16-5.73,6.37-3.87,9.6-10.01,9.6-18.24,0-5-1.27-8.99-3.78-11.86-2.47-2.82-5.63-5.05-9.38-6.63Z"/>
  <path class="st0" d="M287.09,340.4c-37.54,0-41.08,28.83-41.08,37.83,0,30.8,18.53,40.92,42.69,40.92,14.66,0,31.74-5.91,37.7-23.91h-23.2c-1.77,5.34-8.22,8.16-14.5,8.16-18.2,0-19.49-12.66-20.14-18.28h58.8v-3.52c0-34.17-23.36-41.2-40.28-41.2ZM269.21,372.32c1.29-9.84,6.93-15.75,17.56-15.75,7.25,0,16.11,3.66,17.4,15.75h-34.96Z"/>
</svg>